REM Ripping Tool: trurip

FILE "Sugoroku '92, The - Nari Tore - Nariagari Trendy (1991)(Laser Soft - Telenet)(JP).img" BINARY
  TRACK 01 AUDIO
    INDEX 01 00:00:00
  TRACK 02 MODE1/2352
    INDEX 00 00:44:66
    INDEX 01 00:47:65
  TRACK 03 AUDIO
    INDEX 00 00:57:04
    INDEX 01 00:59:04
  TRACK 04 AUDIO
    INDEX 01 01:50:70
  TRACK 05 AUDIO
    INDEX 01 03:24:35
  TRACK 06 AUDIO
    INDEX 01 05:21:38
  TRACK 07 MODE1/2352
    INDEX 00 09:44:42
    INDEX 01 09:47:41

REM DISC HASHES
REM CRC32 : 71013353
REM MD5   : a220b5b77bfdbb7c792b9c3b76336d20
REM SHA1  : 102b8f990f1044df4a84cd7ab5e05e5f615fae4d

REM Gap Append Method: Prev [crc32]
REM Trk 01: ccd25d2f
REM Trk 02: ae9ee711
REM Trk 03: 2eef80e6
REM Trk 04: c0f87aec
REM Trk 05: ac5c2e06
REM Trk 06: b154986e
REM Trk 07: bb14e9ad

REM Gap Append Method: Prev [md5]
REM Trk 01: 7938d9aa88f644b60389fa8246f2052e
REM Trk 02: e3da505028f497fa199bc7eb5bd6be1d
REM Trk 03: d214c4302cd060f50fe02cd29d9853be
REM Trk 04: be3ce0a98c783924828aff439aef73b9
REM Trk 05: 4ccdd225107f0a9c80cf760d8f89e3b9
REM Trk 06: c3cfa52d0b60f6b0bb0844611272d551
REM Trk 07: ee96528f03cea4d9c6f08da9cbfc7327

REM Gap Append Method: Prev [sha1]
REM Trk 01: 0fc7f8840f23f43ebfb7041f71427c165f368105
REM Trk 02: 56175e698f67ed7fbaa231bf88ad8916b4dec82e
REM Trk 03: c0dfb0d5735f068385bcabef4938886876550515
REM Trk 04: 5cf283602e10d1bca11e3ad6855ceafbfacacedf
REM Trk 05: 5f7e0abf0fa4c3d8ba1d1af09a5ed1f8c74ea142
REM Trk 06: 172da47838ffe9efdfc6ff079c3569a62b1d4f67
REM Trk 07: 01daf4a5fedc02707d59589e4733c976d65f442a

REM Gap Append Method: None [crc32]
REM Trk 01: 22144d0f
REM Trk 02: 589f2503
REM Trk 03: 2eef80e6
REM Trk 04: c0f87aec
REM Trk 05: ac5c2e06
REM Trk 06: 76234ca8
REM Trk 07: bb14e9ad
REM Gap 02: 827af62a
REM Gap 03: 7abe247f
REM Gap 07: eec0a4bc

REM Gap Append Method: None [md5]
REM Trk 01: ad1067d0bcc2ffeea540d3b985c51188
REM Trk 02: d9fe8ccaa0f304b8eac4e1007fadb0c8
REM Trk 03: d214c4302cd060f50fe02cd29d9853be
REM Trk 04: be3ce0a98c783924828aff439aef73b9
REM Trk 05: 4ccdd225107f0a9c80cf760d8f89e3b9
REM Trk 06: 67730739ee660b05283633742a9aa24a
REM Trk 07: ee96528f03cea4d9c6f08da9cbfc7327
REM Gap 02: 81b839ffd4ac0e6f7233b24c50c2b29a
REM Gap 03: 9df204fbc98bb8965081cb30a89715fc
REM Gap 07: 4d1ba7cc40395f9e2abb67879bac755e

REM Gap Append Method: None [sha1]
REM Trk 01: 3b472f5e80bbf8259e09f8e4f547567bddb02490
REM Trk 02: 15d03695b8653d05d4d2d240a259b54e19ee7cf9
REM Trk 03: c0dfb0d5735f068385bcabef4938886876550515
REM Trk 04: 5cf283602e10d1bca11e3ad6855ceafbfacacedf
REM Trk 05: 5f7e0abf0fa4c3d8ba1d1af09a5ed1f8c74ea142
REM Trk 06: 5c369c125f21212905a83dde9b0bd49d0bca92c0
REM Trk 07: 01daf4a5fedc02707d59589e4733c976d65f442a
REM Gap 02: a5591b4b16bfa8856e500cde408ad601734109d8
REM Gap 03: cbe29e0bd725ef1194f8c47619dd42078e841de2
REM Gap 07: 99a1fe34a61827808a514fd899000d7d4067f275

REM Gap Append Method: Next [crc32]
REM Trk 01: 22144d0f
REM Trk 02: 3a5e3247
REM Trk 03: 872e1b36
REM Trk 04: c0f87aec
REM Trk 05: ac5c2e06
REM Trk 06: 76234ca8
REM Trk 07: c00ab6b7

REM Gap Append Method: Next [md5]
REM Trk 01: ad1067d0bcc2ffeea540d3b985c51188
REM Trk 02: 54019a8369cc2b9d3270c3146df30110
REM Trk 03: 6ab7f63849e0e5a6093f622c6036a009
REM Trk 04: be3ce0a98c783924828aff439aef73b9
REM Trk 05: 4ccdd225107f0a9c80cf760d8f89e3b9
REM Trk 06: 67730739ee660b05283633742a9aa24a
REM Trk 07: fb03963cb626add35a4de418bc241ff9

REM Gap Append Method: Next [sha1]
REM Trk 01: 3b472f5e80bbf8259e09f8e4f547567bddb02490
REM Trk 02: 4bd64f58bc46052bf033e09836921109c102ea25
REM Trk 03: 430e2c99afd1a907319e06b10572b18c0717530b
REM Trk 04: 5cf283602e10d1bca11e3ad6855ceafbfacacedf
REM Trk 05: 5f7e0abf0fa4c3d8ba1d1af09a5ed1f8c74ea142
REM Trk 06: 5c369c125f21212905a83dde9b0bd49d0bca92c0
REM Trk 07: 5f8d5b510143363bec43b920e12cf17060311e58

